<svg id="Capa_1" enable-background="new 0 0 512 512" height="512" viewBox="0 0 512 512" width="512" xmlns="http://www.w3.org/2000/svg"><g><path d="m151 502h210c22.09 0 40-17.91 40-40v-412c0-22.09-17.91-40-40-40h-210c-22.09 0-40 17.91-40 40v412c0 22.09 17.91 40 40 40z" fill="#ccf5fc"/><path d="m311 317h-130c-11.046 0-20-8.954-20-20v-180c0-11.046 8.954-20 20-20h130z" fill="#ffbdbc"/><path d="m331 50h-150l-15-40h180z" fill="#fff"/><path d="m236 392h40v180h-40z" fill="#ffe6b4" transform="matrix(0 1 -1 0 738 226)"/><path d="m311 107h40v200h-40z" fill="#fff"/><g><circle cx="401" cy="136.86" r="10"/><path d="m407.069 30.54c-2.52-5.96-6.13-11.3-10.72-15.89s-9.93-8.2-15.89-10.72c-6.159-2.6-12.709-3.93-19.459-3.93h-210c-6.75 0-13.3 1.33-19.46 3.93-5.96 2.52-11.3 6.13-15.891 10.72-4.59 4.59-8.199 9.93-10.72 15.89-2.61 6.16-3.929 12.71-3.929 19.46v412c0 6.75 1.319 13.3 3.93 19.46 2.521 5.96 6.13 11.3 10.72 15.89 4.591 4.6 9.931 8.2 15.891 10.72 6.16 2.61 12.71 3.93 19.46 3.93h210c6.75 0 13.3-1.32 19.46-3.93 5.96-2.52 11.3-6.12 15.89-10.72 4.59-4.59 8.2-9.93 10.72-15.89 2.599-6.16 3.929-12.71 3.929-19.46v-280.14c0-5.52-4.49-10-10-10s-10 4.48-10 10v280.14c-.03 16.51-13.49 29.97-30 30h-5v-30c0-5.523-4.478-10-10-10h-180c-5.522 0-10 4.477-10 10v30h-5c-16.51-.03-29.97-13.49-30-30v-412c.03-16.51 13.49-29.97 30-30h8.07l12.567 33.511c1.464 3.903 5.195 6.489 9.363 6.489h150c4.168 0 7.899-2.586 9.363-6.489l12.567-33.511h8.07c16.51.03 29.97 13.49 30 30v41.86c0 5.51 4.49 10 10 10s10-4.49 10-10c0-.01 0-.01 0-.02v-41.84c0-6.75-1.33-13.3-3.931-19.46zm-231.069 441.46h160v20h-160zm148.07-432h-136.14l-7.5-20h151.14z"/><path d="m321 317h30c5.522 0 10-4.477 10-10v-200c0-5.523-4.478-10-10-10h-30c0-5.523-4.478-10-10-10h-130c-16.542 0-30 13.458-30 30v180c0 16.542 13.458 30 30 30h130c5.522 0 10-4.477 10-10zm20-200v180h-20v-180zm-160 190c-5.514 0-10-4.486-10-10v-180c0-5.514 4.486-10 10-10h120v200z"/><path d="m271 167h-70c-5.522 0-10 4.477-10 10s4.478 10 10 10h70c5.522 0 10-4.477 10-10s-4.478-10-10-10z"/><path d="m221 147h30c5.522 0 10-4.477 10-10s-4.478-10-10-10h-30c-5.522 0-10 4.477-10 10s4.478 10 10 10z"/><path d="m304.944 357.528c-2.47-4.94-8.479-6.943-13.416-4.472l-35.528 17.764-35.528-17.764c-4.939-2.47-10.946-.467-13.416 4.472-2.47 4.94-.468 10.947 4.473 13.417l40 20c1.407.704 2.939 1.056 4.472 1.056s3.064-.352 4.472-1.056l40-20c4.939-2.47 6.941-8.477 4.471-13.417z"/><path d="m291.528 393.056-35.528 17.764-35.528-17.764c-4.939-2.47-10.946-.467-13.416 4.472-2.47 4.94-.468 10.947 4.473 13.417l40 20c1.407.704 2.939 1.056 4.472 1.056s3.064-.352 4.472-1.056l40-20c4.94-2.47 6.942-8.477 4.473-13.417-2.471-4.941-8.481-6.943-13.418-4.472z"/></g></g></svg>