<?xml version="1.0" standalone="no"?>
<!DOCTYPE svg PUBLIC "-//W3C//DTD SVG 20010904//EN"
 "http://www.w3.org/TR/2001/REC-SVG-20010904/DTD/svg10.dtd">
<svg version="1.0" xmlns="http://www.w3.org/2000/svg"
 width="903.000000pt" height="763.000000pt" viewBox="0 0 903.000000 763.000000"
 preserveAspectRatio="xMidYMid meet">
<metadata>
Created by potrace 1.16, written by Peter Selinger 2001-2019
</metadata>
<g transform="translate(0.000000,763.000000) scale(0.100000,-0.100000)"
fill="#000000" stroke="none">
<path d="M5 3815 c0 -2101 1 -2959 2 -1907 2 1053 2 2772 0 3820 -1 1049 -2
188 -2 -1913z"/>
<path d="M4244 7622 c8 -14 -44 -113 -56 -106 -6 4 -6 10 1 17 6 6 11 19 11
29 0 9 7 21 16 26 9 5 14 14 10 21 -12 18 -26 13 -36 -15 -6 -14 -26 -53 -45
-86 -40 -68 -43 -78 -15 -53 20 18 20 18 3 -16 -9 -18 -18 -28 -21 -21 -2 7
-9 12 -15 12 -6 0 -4 -7 5 -16 14 -15 14 -19 -8 -57 -13 -23 -24 -49 -24 -58
0 -9 -19 -37 -41 -63 -23 -26 -39 -49 -37 -52 8 -8 98 97 92 107 -6 10 41 71
48 63 3 -2 26 27 52 65 26 39 51 73 56 76 15 9 -9 -47 -29 -70 -31 -34 -103
-165 -97 -178 2 -7 5 -4 5 6 1 9 6 17 11 17 6 0 10 6 10 13 1 6 14 28 30 47
17 19 30 40 30 47 0 7 6 13 14 13 13 0 66 95 66 119 0 5 12 16 28 23 22 11 28
21 30 54 l3 40 -51 3 c-29 1 -49 -2 -46 -7z"/>
<path d="M4405 7618 c3 -7 -2 -38 -9 -68 l-14 -55 5 53 c4 35 2 52 -6 52 -6 0
-11 -3 -12 -7 -4 -62 -13 -101 -30 -145 -12 -29 -25 -66 -28 -83 -4 -18 -14
-30 -24 -31 -15 -2 -15 -1 -1 3 12 4 15 12 11 33 -4 16 2 49 13 79 24 62 25
71 5 71 -8 0 -15 -8 -15 -17 0 -10 -13 -44 -29 -75 -15 -32 -24 -58 -20 -58 4
0 9 6 12 13 2 6 8 9 12 5 4 -4 -2 -23 -14 -42 -15 -24 -18 -35 -9 -38 8 -3 2
-17 -16 -41 -16 -20 -23 -37 -17 -37 8 0 10 -8 6 -20 -3 -11 -2 -20 2 -20 11
0 81 100 108 155 11 22 24 43 30 48 6 4 5 10 -5 16 -12 9 -12 11 2 16 9 4 15
14 13 23 -1 9 0 11 2 5 3 -7 10 -13 18 -13 16 0 11 -27 -16 -87 -23 -52 -23
-57 -4 -49 11 4 15 -1 15 -18 0 -31 -36 -116 -49 -116 -5 0 0 23 12 50 16 39
18 53 9 62 -9 9 -12 7 -12 -12 0 -29 -28 -75 -59 -97 -14 -10 -21 -22 -18 -34
6 -22 -18 -47 -26 -27 -3 8 -8 5 -13 -9 -5 -12 -29 -43 -53 -68 -62 -66 -45
-66 21 0 30 30 62 55 70 55 9 0 21 13 28 29 14 34 41 51 33 21 -7 -25 -37 -57
-73 -75 -30 -15 -40 -35 -19 -35 6 0 -1 -14 -15 -31 -23 -27 -33 -49 -23 -49
2 0 24 20 49 45 72 71 73 53 2 -21 -35 -37 -64 -75 -64 -85 0 -29 12 -23 50
27 19 25 48 60 64 77 26 29 27 29 12 5 -9 -15 -16 -33 -16 -41 0 -7 -11 -24
-25 -37 -27 -25 -35 -51 -10 -30 25 20 42 -2 27 -35 -10 -22 -9 -25 9 -25 16
0 18 -3 10 -19 -15 -28 -1 -33 20 -8 14 17 18 18 19 7 0 -9 -5 -21 -12 -28
-14 -14 -4 -27 16 -19 8 3 20 24 27 46 16 53 25 52 21 -2 -3 -38 -1 -44 22
-55 22 -10 25 -16 20 -37 -7 -27 10 -35 20 -10 9 24 38 6 33 -21 -4 -21 -1
-23 22 -18 14 4 34 17 43 29 10 13 29 30 42 38 23 15 24 15 19 -3 -7 -27 11
-25 25 3 8 17 11 18 11 5 1 -25 21 -23 21 2 0 25 9 25 26 3 9 -12 13 -14 14
-5 0 7 7 20 15 29 13 13 18 13 32 2 14 -12 15 -11 9 7 -4 14 -1 26 9 34 8 7
15 20 15 28 0 13 3 12 14 -3 13 -18 14 -18 25 4 10 18 15 20 27 10 12 -9 14
-6 15 17 0 28 1 28 11 7 15 -31 21 -29 36 10 11 28 14 30 23 15 12 -22 29 -23
29 -3 0 9 7 18 15 21 8 4 15 14 15 24 0 11 4 21 9 24 9 6 19 57 27 140 4 44 3
48 -11 36 -15 -12 -16 -9 -12 29 3 31 1 41 -9 37 -14 -5 -24 14 -29 57 -2 15
-9 35 -14 45 -9 14 -10 11 -11 -16 0 -28 -2 -31 -13 -20 -7 7 -16 21 -20 31
-4 10 -11 16 -16 12 -5 -3 -18 30 -28 72 -18 78 -18 78 -21 33 l-3 -45 -21 55
c-11 30 -22 63 -25 74 -3 10 -16 29 -28 42 -13 13 -25 38 -29 54 -3 17 -12 30
-20 30 -14 0 -14 -12 -1 -117 2 -18 0 -33 -5 -33 -4 0 -11 34 -15 75 -7 70 -9
75 -31 75 -24 0 -24 -2 -26 -97 l-2 -98 -3 85 c-4 88 -13 110 -44 110 -15 0
-18 -6 -14 -27 14 -80 12 -116 -6 -134 -22 -22 -21 -24 -20 61 1 60 1 63 -12
40 -8 -15 -10 -30 -5 -36 5 -7 4 -23 -2 -38 -13 -34 -13 -79 0 -92 5 -5 7 -19
4 -31 -6 -20 -8 -21 -22 -7 -12 12 -17 13 -23 3 -16 -27 -19 0 -5 42 17 51 23
109 13 126 -4 6 -5 17 -3 25 2 7 7 25 10 41 6 25 4 27 -28 27 -29 0 -36 -4
-45 -32 -6 -17 -14 -29 -17 -25 -3 3 -1 14 5 25 15 29 14 32 -14 32 -15 0 -23
-5 -20 -12z"/>
<path d="M9010 3815 c0 -2537 3 -3815 10 -3815 7 0 10 1278 10 3815 0 2537 -3
3815 -10 3815 -7 0 -10 -1278 -10 -3815z"/>
<path d="M2627 6344 c-4 -4 -7 -15 -7 -25 0 -9 -9 -19 -20 -22 -11 -3 -20 -12
-20 -21 0 -13 -5 -14 -26 -6 -34 13 -31 15 -50 -25 -10 -21 -26 -38 -40 -41
-16 -4 -24 -13 -24 -28 0 -17 -2 -18 -10 -6 -8 12 -13 11 -39 -8 -16 -12 -32
-18 -36 -13 -3 5 -13 8 -23 6 -9 -2 -19 -4 -22 -4 -3 -1 1 -5 7 -9 9 -6 5 -17
-16 -40 -16 -17 -31 -37 -34 -44 -4 -10 -7 -10 -18 1 -11 10 -11 15 -1 18 19
7 14 24 -5 21 -12 -2 -17 3 -15 15 2 9 -2 17 -8 17 -5 0 -10 -11 -10 -25 0
-15 -8 -29 -22 -36 -28 -15 -40 -30 -69 -88 -14 -29 -24 -39 -29 -31 -6 9 -11
7 -18 -7 -7 -12 -7 -24 -2 -29 5 -5 3 -17 -6 -28 -10 -14 -14 -16 -14 -5 -1
18 -59 -91 -59 -111 -1 -13 0 -13 10 0 17 25 0 -26 -32 -94 -16 -34 -29 -69
-29 -78 0 -25 -42 -91 -50 -79 -8 13 -41 -71 -114 -293 -59 -176 -62 -191 -46
-181 6 3 10 1 10 -4 0 -6 -7 -11 -16 -11 -11 0 -15 -6 -11 -20 3 -11 2 -18 -2
-15 -8 4 -43 -136 -36 -143 1 -2 11 23 21 55 9 32 23 65 31 74 7 9 11 18 8 21
-3 3 1 11 10 18 12 10 15 10 15 -3 0 -9 -5 -19 -10 -22 -6 -4 -8 -15 -5 -25 3
-10 1 -21 -5 -25 -6 -4 -9 -13 -6 -20 3 -8 -4 -24 -14 -38 -10 -13 -22 -35
-25 -49 -5 -21 -2 -27 15 -33 15 -5 28 -2 38 9 20 20 10 31 -17 17 -11 -6 -22
-7 -25 -3 -8 14 9 31 37 36 35 6 47 14 47 30 0 8 9 16 20 19 30 8 24 -15 -10
-43 -37 -31 -38 -40 -2 -40 26 0 45 18 64 60 5 11 7 9 7 -7 1 -25 15 -30 27
-11 5 8 10 6 15 -8 6 -14 8 -15 8 -3 1 18 38 55 47 47 3 -4 -1 -19 -9 -35 -16
-31 -13 -53 8 -53 14 0 27 -24 18 -34 -3 -3 -17 4 -32 15 -24 19 -26 19 -38 3
-7 -10 -13 -23 -13 -28 0 -6 5 -3 11 7 5 9 15 17 20 17 6 0 9 -8 8 -17 -3 -30
1 -43 11 -43 6 0 10 9 10 21 0 11 4 18 8 15 5 -3 20 6 34 19 14 13 29 21 32
18 10 -10 7 -23 -6 -23 -18 0 -58 -49 -52 -64 6 -15 -40 -41 -55 -32 -6 4 -11
3 -11 -3 0 -6 9 -15 20 -21 11 -6 20 -21 20 -33 0 -12 4 -17 8 -11 5 7 14 7
30 -1 20 -11 21 -13 7 -25 -14 -12 -18 -11 -25 0 -5 8 -12 11 -16 7 -4 -4 0
-15 10 -25 14 -12 20 -14 23 -4 5 14 23 16 23 3 0 -12 -29 -41 -40 -41 -5 0
-11 9 -15 19 -4 13 -12 17 -26 14 -20 -6 -20 -6 4 -32 29 -30 42 -66 31 -83
-5 -7 -7 -27 -5 -45 2 -25 -1 -33 -14 -33 -11 0 -15 5 -11 16 3 9 2 12 -5 9
-5 -4 -7 -15 -4 -25 3 -10 1 -21 -5 -25 -6 -4 -8 -15 -5 -25 3 -10 1 -21 -5
-25 -7 -4 -5 -11 4 -21 17 -16 11 -44 -8 -44 -7 0 -18 -11 -24 -25 -18 -39
-14 -51 8 -27 27 29 38 28 32 -3 -2 -14 -8 -22 -13 -19 -5 3 -15 -1 -23 -8
-17 -18 4 -106 30 -125 18 -14 17 -16 -13 -43 -38 -34 -39 -37 -18 -60 13 -15
13 -21 2 -43 -10 -18 -17 -23 -28 -17 -11 8 -11 12 6 24 31 22 11 30 -27 10
-18 -10 -39 -17 -45 -16 -7 2 -13 -2 -13 -8 0 -5 5 -10 10 -10 6 0 10 -8 8
-17 -2 -10 5 -19 16 -21 16 -3 18 0 12 22 -4 15 -2 26 4 26 5 0 10 -6 10 -13
0 -8 11 -20 25 -27 15 -8 25 -22 25 -34 -1 -19 -2 -20 -14 -4 -10 13 -22 16
-49 11 -36 -5 -46 -16 -29 -27 5 -3 9 -20 10 -38 l1 -33 -17 23 c-18 23 -32
21 -32 -5 0 -8 4 -12 9 -8 13 7 23 -28 15 -49 -5 -12 -2 -15 11 -9 15 5 17 2
11 -20 -5 -21 -2 -26 16 -29 26 -4 35 -23 13 -32 -11 -4 -14 -2 -10 7 4 6 0 4
-9 -7 -18 -22 -36 -13 -29 15 4 16 2 20 -8 17 -16 -5 -13 -59 3 -69 16 -10 0
-42 -17 -35 -8 3 -15 1 -15 -4 0 -6 5 -10 11 -10 17 0 1 -112 -18 -126 -14
-10 -14 -11 1 -17 9 -4 16 -15 16 -26 0 -11 5 -23 10 -26 15 -10 12 -25 -6
-25 -9 0 -14 -6 -11 -12 2 -7 10 -13 18 -13 21 0 27 -26 13 -53 -15 -29 -7
-63 12 -55 8 3 14 -1 14 -10 0 -8 7 -28 15 -43 8 -16 15 -39 15 -51 0 -13 5
-23 11 -23 5 0 8 -4 5 -9 -9 -14 99 -224 172 -336 124 -189 278 -353 454 -484
103 -76 228 -153 268 -166 l24 -8 -25 -19 c-13 -11 -85 -51 -159 -88 -166 -84
-354 -197 -525 -315 -108 -75 -166 -126 -343 -304 -219 -220 -312 -325 -451
-516 -117 -160 -168 -249 -255 -441 -40 -88 -45 -106 -36 -129 9 -24 7 -34
-13 -65 -14 -20 -36 -59 -51 -88 l-26 -52 542 0 543 0 67 60 c133 120 375 277
528 342 47 20 130 58 185 83 120 56 190 67 251 39 53 -25 175 -149 203 -206
l22 -46 -20 -85 c-12 -46 -28 -103 -36 -127 -8 -23 -15 -46 -15 -51 0 -5 595
-9 1371 -9 1302 0 1371 1 1364 18 -22 56 -76 277 -96 390 -22 127 -22 132 -4
177 54 143 263 82 613 -180 187 -139 340 -266 417 -344 l59 -61 518 0 517 0
-24 64 c-19 50 -23 75 -18 118 5 52 3 59 -66 194 -139 270 -376 597 -662 916
-165 183 -444 455 -617 602 l-102 88 -96 -57 c-169 -101 -348 -183 -549 -253
-67 -23 -250 -72 -270 -72 -8 0 -16 14 -20 31 -5 20 -10 28 -17 21 -6 -6 -6
-17 1 -30 15 -28 15 -29 -21 -35 -18 -3 -96 -17 -173 -31 -142 -25 -294 -43
-285 -33 3 2 23 7 45 11 152 21 256 38 295 47 25 5 54 11 65 12 28 3 34 47 6
47 -11 0 -23 5 -26 10 -8 12 -45 13 -45 1 0 -5 10 -16 23 -25 22 -17 21 -17
-17 -12 -22 3 -46 12 -54 20 -13 12 -21 12 -68 -4 -31 -11 -56 -15 -59 -9 -4
5 3 9 14 9 20 0 20 1 4 18 -14 14 -20 15 -26 5 -4 -7 -15 -13 -22 -13 -8 0
-15 -4 -15 -10 0 -5 -7 -10 -15 -10 -8 0 -15 6 -15 14 0 24 -29 26 -65 5 -38
-23 -56 -19 -48 11 8 28 19 33 37 14 14 -14 16 -14 16 0 0 8 -9 20 -19 26 -26
13 -31 13 -31 -5 0 -8 -7 -15 -15 -15 -8 0 -15 -5 -15 -11 0 -7 -10 -9 -25 -5
-20 5 -25 3 -25 -14 0 -11 -5 -20 -11 -20 -8 0 -9 11 -5 33 5 28 4 30 -8 15
-7 -10 -19 -18 -25 -18 -7 0 -10 -4 -7 -8 3 -5 -19 -8 -49 -6 -39 2 -59 -1
-70 -12 -16 -17 -35 -11 -35 11 0 16 -25 26 -46 18 -14 -5 -15 -3 -5 15 7 14
8 23 1 27 -12 7 -32 -3 -26 -13 2 -4 -2 -15 -9 -25 -17 -23 -30 -5 -16 22 8
15 7 20 -5 25 -9 4 -22 2 -29 -4 -9 -8 -14 -6 -18 4 -8 21 19 39 48 32 14 -4
25 -2 25 4 0 5 -17 10 -37 10 -39 -1 -73 -19 -73 -39 0 -13 -13 -15 -24 -3 -4
4 -13 7 -19 7 -7 1 -11 6 -10 13 4 15 -14 16 -19 0 -2 -6 -10 -8 -16 -4 -8 5
-9 13 -2 26 7 13 5 21 -6 31 -21 18 -42 -4 -24 -26 10 -12 10 -15 -3 -15 -18
0 -29 24 -20 47 5 12 2 15 -10 10 -11 -4 -22 1 -29 13 -7 11 -18 20 -24 20 -6
0 -17 7 -24 15 -10 13 -9 15 9 15 22 0 28 14 11 25 -5 3 -10 14 -10 23 0 9
-12 23 -27 30 -33 15 -54 16 -50 1 1 -6 -4 -14 -12 -16 -9 -4 -11 0 -7 15 5
15 1 25 -13 34 -24 15 -27 28 -8 28 8 0 13 9 12 20 -2 25 -15 39 -15 17 0 -20
-2 -20 -35 -5 -37 17 -33 39 7 31 28 -6 31 -4 23 13 -4 10 -8 27 -9 36 0 16
-2 16 -17 2 -10 -9 -20 -11 -23 -6 -3 5 -17 7 -31 4 -33 -6 -33 14 0 22 30 8
34 36 4 36 -15 0 -19 4 -15 15 3 8 9 22 12 30 4 10 0 15 -10 15 -10 0 -16 -9
-16 -24 0 -13 -6 -26 -12 -28 -18 -6 -41 20 -34 38 4 11 -1 18 -14 21 -21 6
-28 47 -10 58 15 9 12 55 -4 55 -9 0 -12 8 -8 25 5 26 27 30 27 5 0 -7 6 -15
13 -18 9 -3 11 3 6 22 -5 20 -2 26 11 26 10 0 15 -7 14 -17 -3 -20 21 -63 35
-63 6 0 5 5 -2 12 -12 12 -17 48 -6 48 3 0 18 -9 32 -21 24 -18 28 -19 38 -4
7 9 18 13 28 9 14 -5 17 -1 14 22 -4 38 -49 73 -103 79 -5 1 -27 9 -48 18 -21
10 -42 15 -47 12 -6 -4 -10 -1 -10 4 0 6 -6 11 -13 11 -8 0 -24 11 -37 25 -22
23 -22 25 -4 31 10 4 23 14 27 21 7 12 11 11 23 -4 7 -10 14 -13 14 -7 0 15
-45 56 -53 47 -4 -3 -7 -1 -7 5 0 6 16 16 35 22 45 15 33 35 -28 45 -23 4 -46
11 -52 15 -24 19 -134 -13 -163 -49 -35 -43 -62 -93 -56 -102 3 -6 -7 -25 -23
-42 -31 -33 -57 -106 -52 -148 1 -13 -2 -33 -6 -43 -6 -13 -4 -21 3 -24 15 -5
16 -39 1 -47 -7 -5 -5 -15 5 -31 18 -27 20 -44 6 -44 -5 0 -10 7 -10 15 0 8
-4 15 -10 15 -5 0 -10 -4 -10 -9 0 -14 29 -41 44 -41 21 0 13 -80 -10 -97 -18
-14 -18 -15 9 -37 25 -20 40 -55 17 -41 -12 8 -55 -21 -55 -37 0 -21 -26 -20
-32 1 -5 20 -7 21 -29 6 -22 -14 -24 -14 -24 1 0 10 -6 14 -14 11 -20 -8 -28
31 -9 42 12 6 14 14 6 37 -10 28 -10 28 -17 7 -4 -14 -18 -25 -34 -29 -15 -3
-39 -12 -54 -20 -28 -15 -38 -8 -17 13 8 8 1 11 -27 8 -22 -1 -31 -1 -21 2 9
2 17 8 17 13 0 12 -28 20 -45 14 -8 -4 -15 -1 -15 5 0 6 5 11 10 11 16 0 12
20 -6 27 -9 3 -20 0 -26 -8 -8 -11 -9 -10 -4 3 6 22 -21 51 -41 44 -9 -4 -17
1 -20 14 -3 11 -12 20 -19 20 -9 0 -14 11 -14 28 0 25 -3 27 -40 27 -35 0 -39
-2 -34 -19 5 -16 4 -17 -9 -5 -8 8 -13 18 -10 22 3 4 -7 17 -22 29 -22 17 -26
27 -21 49 5 28 -6 39 -19 19 -3 -5 -18 -10 -33 -10 l-27 0 29 19 30 20 -30 7
c-44 10 -47 14 -28 36 22 23 7 38 -32 30 -14 -2 -24 0 -24 7 0 6 7 11 15 11
18 0 18 5 5 31 -6 10 -17 19 -24 19 -8 0 -16 7 -20 15 -3 8 -12 12 -21 9 -8
-3 -15 -1 -15 5 0 6 5 11 10 11 6 0 10 14 10 30 0 29 -13 40 -25 20 -11 -17
-20 -11 -21 14 -1 18 5 26 25 32 25 7 25 7 -11 16 -40 11 -53 31 -16 26 11 -2
23 3 25 10 3 8 -4 11 -18 10 -15 -2 -24 3 -27 15 -2 12 3 17 17 17 22 0 28 14
10 25 -6 5 -4 12 8 20 17 13 17 14 0 20 -16 7 -15 10 8 31 31 29 31 34 0 34
-30 0 -33 15 -6 30 24 12 21 40 -5 54 -10 6 -21 12 -23 13 -2 1 4 14 13 28 12
18 26 25 49 26 30 0 31 1 10 11 -34 17 -28 31 11 25 18 -3 38 -1 43 4 5 5 68
11 139 14 129 4 165 7 344 26 180 20 419 87 591 167 95 44 158 66 165 59 3 -3
-15 -36 -39 -74 -51 -77 -63 -109 -49 -126 5 -7 12 -25 16 -41 9 -37 83 -103
155 -138 62 -30 215 -58 232 -41 6 6 3 18 -11 35 -11 15 -20 29 -20 33 0 3
-17 27 -38 53 -21 26 -44 61 -52 77 -8 17 -19 37 -25 45 -6 8 -16 36 -23 62
-11 43 -10 52 9 88 12 22 30 45 41 51 15 8 17 13 9 19 -21 12 71 30 156 30
147 0 301 -38 475 -116 57 -25 123 -55 148 -66 25 -11 59 -26 75 -33 79 -35
242 -93 325 -115 95 -25 231 -40 375 -40 481 0 870 182 1023 478 132 256 159
540 72 754 -68 168 -205 333 -321 388 -55 26 -75 30 -147 30 -74 0 -102 -6
-240 -51 -213 -70 -506 -175 -682 -244 -236 -92 -308 -114 -470 -140 -113 -19
-368 -54 -392 -55 -12 0 -18 8 -18 24 0 14 -4 28 -10 31 -6 4 -10 -6 -10 -23
0 -22 -6 -31 -22 -36 -30 -8 -199 -8 -277 0 l-61 7 -1 51 -1 51 -12 -47 c-6
-25 -13 -49 -16 -52 -7 -6 -203 24 -350 54 -204 41 -297 72 -605 198 -93 38
-242 93 -330 123 -88 30 -152 55 -142 57 9 2 17 5 17 7 0 12 -50 55 -63 55 -8
0 -22 18 -32 42 -11 27 -19 38 -24 29 -10 -15 -25 1 -40 42 -10 26 2 40 12 15
3 -7 6 -1 6 15 1 28 -23 39 -32 15 -3 -7 -3 2 0 21 6 31 4 33 -17 26 -20 -7
-22 -5 -16 18 3 15 1 29 -5 33 -7 4 -9 22 -4 50 3 24 2 44 -2 44 -5 0 -18 7
-29 15 -17 14 -15 14 19 1 23 -9 37 -11 37 -5 0 16 -33 54 -47 55 -28 2 -33 4
-33 15 0 7 -10 20 -22 30 -11 11 -16 19 -10 19 6 0 17 -6 25 -14 24 -25 52
-24 55 2 2 12 8 22 15 22 8 0 8 3 0 11 -6 6 -9 26 -6 44 4 25 0 38 -16 54 -22
22 -27 41 -12 41 5 0 11 -6 14 -12 2 -7 8 -10 12 -6 4 4 0 15 -10 24 -16 17
-16 18 5 26 15 5 20 15 18 30 -4 28 -22 27 -26 -2 -2 -11 -10 -20 -17 -20 -14
0 -13 8 2 48 14 36 10 60 -10 57 -10 -2 -24 -2 -32 2 -17 6 -20 33 -5 33 6 0
10 5 10 11 0 21 41 68 54 63 9 -3 18 6 24 24 8 24 7 33 -6 46 -15 15 -15 16 4
16 17 0 20 5 16 25 -3 16 0 25 8 25 7 0 10 6 7 14 -3 8 9 26 29 42 39 33 43
44 14 44 -11 0 -20 -4 -20 -8 0 -9 -44 -32 -60 -32 -5 0 2 12 15 26 14 15 25
31 25 37 0 5 6 7 13 4 7 -3 22 2 32 10 19 15 19 15 -7 11 -24 -5 -26 -3 -17
14 6 11 17 22 25 25 8 3 14 10 14 15 0 6 -7 8 -15 4 -23 -9 -18 13 10 39 17
15 22 26 15 30 -8 5 -7 11 2 23 11 13 11 15 -4 10 -11 -5 -18 0 -21 12 -5 20
0 30 17 30 12 0 36 -46 36 -68 0 -7 5 -10 10 -7 6 3 7 17 4 31 -4 14 -2 24 5
24 14 0 15 27 1 35 -20 13 -90 11 -90 -2 0 -7 -7 -13 -15 -13 -8 0 -15 7 -15
15 0 8 5 15 10 15 6 0 10 7 10 15 0 14 17 20 48 16 17 -3 15 6 -9 41 -16 22
-19 32 -10 41 20 20 12 29 -19 22 -28 -6 -30 -5 -28 19 1 15 10 28 20 32 10 3
18 14 18 25 0 22 -15 26 -23 5 -7 -17 -47 -10 -47 9 0 7 -6 17 -12 23 -10 8
-13 3 -14 -19 -1 -18 4 -29 12 -29 17 0 17 -5 4 -31 -16 -28 -31 -23 -24 7 5
20 4 25 -6 19 -9 -5 -10 -2 -5 14 7 22 -7 56 -18 45z m3591 -2134 c17 -11 32
-25 32 -33 0 -32 -45 -168 -73 -222 -41 -78 -135 -172 -214 -213 -35 -18 -106
-44 -159 -57 -298 -76 -620 -16 -764 142 -28 30 -50 59 -50 64 0 13 17 11 26
-2 5 -8 12 -5 23 8 9 11 42 27 74 36 l58 16 67 -68 c99 -99 185 -131 299 -110
154 28 251 139 272 309 5 40 11 74 13 76 9 9 295 73 328 73 19 1 50 -8 68 -19z
m-3058 -233 c0 -5 5 -5 10 -2 6 4 18 1 26 -6 13 -10 17 -10 24 0 5 10 18 -2
42 -40 77 -120 167 -173 293 -173 92 0 131 16 229 92 l59 46 18 -23 c11 -13
19 -29 19 -36 0 -8 10 -15 23 -17 18 -3 13 -9 -33 -35 -134 -79 -418 -102
-611 -50 -129 34 -202 71 -269 136 -32 31 -37 38 -13 18 49 -42 122 -82 131
-71 4 4 2 9 -5 11 -32 11 -62 45 -59 66 2 12 -2 30 -8 41 -8 14 -8 20 2 23 7
3 18 11 25 19 13 14 97 15 97 1z"/>
<path d="M1655 4808 c-2 -7 -8 -33 -14 -58 -16 -77 -48 -194 -59 -221 l-11
-27 -69 23 c-39 13 -85 26 -104 30 -18 4 -42 13 -53 21 -29 18 -145 46 -172
41 -12 -2 -20 0 -17 4 10 16 -13 9 -39 -11 -22 -18 -27 -18 -34 -5 -8 13 -19
10 -78 -21 -39 -19 -83 -48 -100 -63 -16 -16 -37 -32 -46 -37 -51 -28 -234
-278 -285 -388 -94 -205 20 -515 281 -764 103 -99 226 -186 330 -233 53 -24
78 -29 141 -29 120 0 254 61 345 158 l46 49 -23 69 c-39 120 -59 308 -33 325
11 7 11 11 2 17 -8 5 -9 13 -3 22 9 13 10 13 10 0 0 -13 2 -13 9 -1 7 10 4 19
-6 26 -22 17 -10 45 16 38 12 -3 21 -1 21 6 0 6 -7 11 -15 11 -20 0 -19 15 2
47 15 22 15 27 2 37 -16 12 -16 80 0 100 6 7 10 21 10 31 1 51 8 111 14 122 4
6 0 16 -8 23 -8 7 -12 17 -8 23 4 6 9 3 14 -9 6 -16 8 -16 8 -2 1 11 6 15 16
12 8 -4 15 -2 15 4 0 5 -7 15 -15 22 -8 7 -15 20 -15 29 0 9 -5 22 -12 29 -8
8 -8 15 1 26 7 8 9 25 5 40 -7 28 4 34 25 14 14 -13 14 -14 -5 55 -4 11 0 17
13 17 15 1 13 5 -9 23 -20 16 -26 28 -22 44 5 19 10 21 25 12 21 -11 25 1 7
19 -8 8 -9 15 -3 20 6 4 11 16 12 27 7 59 19 78 32 56 5 -8 14 -10 21 -6 9 6
9 9 -1 15 -10 7 -10 12 -1 22 9 11 9 17 0 26 -9 9 -8 12 5 12 9 0 17 4 17 9 0
5 3 18 7 28 6 16 5 16 -10 5 -9 -8 -21 -11 -27 -7 -6 3 -10 -3 -10 -14 0 -25
-15 -28 -17 -3 -1 9 -2 34 -4 55 -1 22 -7 36 -13 34 -6 -2 -10 -11 -8 -19 4
-24 -20 -39 -36 -22 -7 8 -8 14 -2 14 5 0 10 5 10 10 0 15 -26 12 -40 -5 -21
-25 -31 -17 -24 20 6 33 -2 50 -11 23z m-600 -277 c-5 -16 -12 -20 -31 -15
-14 4 -24 2 -24 -5 0 -6 5 -11 10 -11 14 0 12 -27 -2 -34 -10 -5 -10 -7 0 -12
19 -9 14 -24 -8 -24 -22 0 -25 -12 -9 -38 7 -12 7 -25 0 -44 -12 -33 -31 -37
-31 -8 0 11 4 20 10 20 17 0 -1 28 -21 33 -21 6 -25 -3 -8 -20 14 -14 1 -60
-21 -76 -13 -9 -18 -24 -17 -47 2 -33 0 -35 -27 -33 l-29 2 22 -20 c19 -18 20
-22 7 -41 -8 -11 -12 -27 -9 -34 3 -8 0 -14 -6 -14 -6 0 -11 5 -11 10 0 6 -7
10 -15 10 -8 0 -15 -8 -15 -18 0 -34 -24 -73 -42 -68 -26 6 -1 -29 31 -45 26
-13 26 -13 4 -17 -15 -2 -23 -10 -23 -23 0 -11 -7 -27 -15 -36 -13 -13 -14
-18 -3 -32 15 -19 38 -58 38 -66 0 -3 -7 -5 -15 -5 -9 0 -20 12 -26 26 -5 15
-12 24 -16 21 -3 -3 -2 -14 2 -24 9 -21 9 -21 0 -52 -6 -21 -5 -23 14 -18 11
3 24 1 27 -5 3 -5 -3 -12 -15 -15 -24 -6 -29 -23 -7 -23 22 0 29 -19 15 -37
-11 -13 -10 -17 4 -28 17 -12 24 -55 10 -55 -5 0 -19 16 -33 34 -14 19 -29 32
-34 28 -5 -3 -6 0 -1 7 7 13 -24 81 -37 81 -8 0 -13 -37 -7 -55 1 -5 2 -25 1
-42 -1 -23 2 -33 13 -33 8 0 15 5 15 10 0 6 6 10 14 10 9 0 12 -7 9 -20 -3
-12 -8 -18 -11 -15 -3 2 -10 0 -17 -5 -8 -7 -23 3 -50 30 -22 22 -34 40 -27
40 7 0 12 -5 12 -11 0 -6 5 -9 11 -7 14 5 7 22 -10 25 -8 1 -21 9 -30 18 -14
14 -14 17 -1 26 13 9 13 10 -2 6 -19 -6 -33 19 -15 27 7 2 4 5 -5 5 -10 1 -19
9 -20 19 -2 27 -4 35 -17 67 -9 20 -11 55 -7 105 11 130 88 260 252 424 80 79
101 96 118 96 10 0 16 8 16 21 0 15 5 19 18 15 9 -3 35 5 57 18 46 26 49 26
40 -3z"/>
</g>
</svg>
